<svg width="178" height="26" viewBox="0 0 178 26" fill="none" xmlns="http://www.w3.org/2000/svg">
<path d="M85.7548 8.13281C83.9741 7.64937 82.4388 7.23424 82.4388 6.07817C82.4388 4.8643 83.713 4.41239 84.8096 4.41239C85.9898 4.41239 87.0864 4.80125 87.7025 5.64727L91.5772 5.02195C91.5772 5.02195 90.0785 0.849609 84.8044 0.849609C81.008 0.849609 78.3605 3.02511 78.3605 6.14123C78.3605 9.78283 81.6451 10.6919 84.2874 11.4223C86.0785 11.9163 87.6242 12.3472 87.6242 13.477C87.6242 14.9956 85.9532 15.2952 84.9193 15.2952C83.4049 15.2952 82.0263 14.6751 81.4049 13.5663L77.4258 14.2021C77.4258 14.2021 78.7052 18.8369 84.8461 18.8369C88.9506 18.8369 91.7078 16.6982 91.7078 13.5138C91.6973 9.7513 88.4023 8.85273 85.7548 8.13281Z" fill="#7B87A0"/>
<path d="M117.697 4.15561V1.34961H113.838V18.3223H117.702V9.49438C117.702 7.94425 118.548 6.4887 119.948 5.83186C120.82 5.422 122.256 5.06993 124.287 5.28012L122.762 1.34961C120.736 1.34961 118.773 2.11154 117.697 4.15561Z" fill="#7B87A0"/>
<path d="M8.89818 0.914062C3.90601 0.914062 0 4.83412 0 9.83667C0 14.8392 3.90601 18.7593 8.89818 18.7593C13.8851 18.7593 17.7964 14.8392 17.7964 9.83667C17.7964 4.83412 13.8851 0.914062 8.89818 0.914062ZM13.9321 9.83667C13.9321 12.7636 11.765 14.9706 8.89818 14.9706C6.02611 14.9706 3.86423 12.7636 3.86423 9.83667C3.86423 6.90976 6.02611 4.70275 8.89818 4.70275C11.7702 4.70275 13.9321 6.90976 13.9321 9.83667Z" fill="#7B87A0"/>
<path d="M29.739 0.914062C27.3683 0.914062 25.4205 1.79686 24.0732 3.47839V1.35021H20.209V25.002H24.0732V16.2265C25.4257 17.887 27.3787 18.7593 29.739 18.7593C34.4492 18.7593 38.1411 14.8392 38.1411 9.83667C38.1359 4.9182 34.3709 0.914062 29.739 0.914062ZM34.2769 9.83667C34.2769 12.8529 32.1307 15.0389 29.175 15.0389C26.2194 15.0389 24.0732 12.8529 24.0732 9.83667C24.0732 6.82568 26.2194 4.63444 29.175 4.63444C32.1307 4.63444 34.2769 6.82043 34.2769 9.83667Z" fill="#7B87A0"/>
<path d="M68.7321 0.914062C66.5545 0.914062 64.8365 1.69175 63.7295 3.17357V1.3502H59.8652V18.3228H63.7295V9.23745C63.7295 6.27382 65.2125 4.57131 67.8026 4.57131C70.0741 4.57131 71.3796 5.93226 71.3796 8.30212V18.3228H75.2438V7.93429C75.2386 3.67276 72.6851 0.914062 68.7321 0.914062Z" fill="#7B87A0"/>
<path d="M106.116 10.4351C106.116 13.3988 104.633 15.1013 102.043 15.1013C99.7713 15.1013 98.4658 13.7404 98.4658 11.3705V1.34961H94.6016V11.7383C94.6016 15.9999 97.1551 18.7534 101.108 18.7534C103.286 18.7534 105.004 17.9757 106.111 16.4939V18.3225H109.975V1.34961H106.111V10.4351H106.116Z" fill="#7B87A0"/>
<path d="M134.068 13.7664L129.52 1.34961H125.301L131.88 18.3223H136.22L142.794 1.34961H138.58L134.068 13.7664Z" fill="#7B87A0"/>
<path d="M53.3692 12.9769C52.6329 14.0699 51.4266 14.8424 49.9175 15.0841C47.2961 15.5044 45.2021 14.4535 44.2778 12.2781L57.2804 10.2077C57.2804 10.2077 57.2386 9.06221 57.1551 8.56302C56.7791 6.18265 55.6094 4.1018 53.8548 2.70406C52.048 1.26427 49.7556 0.675751 47.4005 1.04883C42.3091 1.86331 39.1968 6.15638 40.001 11.2587C40.3874 13.7231 41.5989 15.8407 43.4632 17.1544C45.5833 18.6467 47.8809 18.962 50.4397 18.6257C53.7347 18.1948 55.5833 16.1876 56.3509 15.1524L53.3692 12.9769ZM47.9227 4.56947C49.7556 4.2752 52.0428 4.93204 53.035 7.62769L43.7399 9.10951C43.907 6.65032 45.4579 4.95831 47.9227 4.56947Z" fill="#7B87A0"/>
<path d="M156.287 12.9769C155.551 14.0699 154.345 14.8424 152.835 15.0841C150.214 15.5044 148.12 14.4535 147.196 12.2781L160.198 10.2077C160.198 10.2077 160.157 9.06221 160.073 8.56302C159.697 6.18265 158.527 4.1018 156.773 2.70406C154.966 1.26427 152.674 0.675751 150.318 1.04883C145.227 1.86331 142.115 6.15638 142.919 11.2587C143.305 13.7231 144.517 15.8407 146.381 17.1544C148.501 18.6467 150.799 18.962 153.358 18.6257C156.653 18.1948 158.501 16.1876 159.269 15.1524L156.287 12.9769ZM150.841 4.56947C152.674 4.2752 154.961 4.93204 155.953 7.62769L146.658 9.10951C146.825 6.65032 148.376 4.95831 150.841 4.56947Z" fill="#7B87A0"/>
<path d="M163.43 24.98H167.634L177.806 1.34961H173.665L169.017 12.6787L164.459 1.34961H160.312L166.61 17.5919L163.43 24.98Z" fill="#7B87A0"/>
</svg>
