<svg width="178" height="24" viewBox="0 0 178 24" fill="none" xmlns="http://www.w3.org/2000/svg">
<path d="M85.7548 7.2376C83.9741 6.75718 82.4388 6.34465 82.4388 5.19582C82.4388 3.98956 83.713 3.54047 84.8096 3.54047C85.9897 3.54047 87.0864 3.92689 87.7025 4.76762L91.5772 4.14621C91.5772 4.14621 90.0785 0 84.8044 0C81.008 0 78.3605 2.16188 78.3605 5.25849C78.3605 8.87729 81.6451 9.78068 84.2874 10.5065C86.0785 10.9974 87.6242 11.4256 87.6242 12.5483C87.6242 14.0574 85.9532 14.3551 84.9192 14.3551C83.4049 14.3551 82.0263 13.7389 81.4049 12.6371L77.4258 13.2689C77.4258 13.2689 78.7052 17.8747 84.8461 17.8747C88.9506 17.8747 91.7078 15.7493 91.7078 12.5849C91.6973 8.84595 88.4023 7.953 85.7548 7.2376Z" fill="#0050FF"/>
<path d="M117.697 3.28461V0.496094H113.838V17.3629H117.702V8.59009C117.702 7.04962 118.548 5.60314 119.948 4.9504C120.82 4.54309 122.256 4.19322 124.287 4.4021L122.762 0.496094C120.736 0.496094 118.773 1.25327 117.697 3.28461Z" fill="#0050FF"/>
<path d="M8.89817 0.0625C3.90601 0.0625 0 3.95806 0 8.92934C0 13.9006 3.90601 17.7962 8.89817 17.7962C13.8851 17.7962 17.7963 13.9006 17.7963 8.92934C17.7963 3.95806 13.8851 0.0625 8.89817 0.0625ZM13.9321 8.92934C13.9321 11.838 11.765 14.0312 8.89817 14.0312C6.02611 14.0312 3.86423 11.838 3.86423 8.92934C3.86423 6.02072 6.02611 3.82751 8.89817 3.82751C11.7702 3.82751 13.9321 6.02072 13.9321 8.92934Z" fill="#0050FF"/>
<path d="M29.739 0.0625C27.3683 0.0625 25.4205 0.939784 24.0732 2.6108V0.49592H20.209V23.9998H24.0732V15.2792C25.4257 16.9293 27.3787 17.7962 29.739 17.7962C34.4492 17.7962 38.1411 13.9006 38.1411 8.92934C38.1359 4.04161 34.3709 0.0625 29.739 0.0625ZM34.2769 8.92934C34.2769 11.9267 32.1307 14.0991 29.175 14.0991C26.2194 14.0991 24.0732 11.9267 24.0732 8.92934C24.0732 5.93717 26.2194 3.75963 29.175 3.75963C32.1307 3.75963 34.2769 5.93195 34.2769 8.92934Z" fill="#0050FF"/>
<path d="M68.7321 0.0625C66.5545 0.0625 64.8365 0.835346 63.7295 2.30793V0.49592H59.8652V17.3628H63.7295V8.33404C63.7295 5.38887 65.2125 3.69697 67.8026 3.69697C70.0741 3.69697 71.3796 5.04945 71.3796 7.40454V17.3628H75.2438V7.039C75.2386 2.80402 72.6851 0.0625 68.7321 0.0625Z" fill="#0050FF"/>
<path d="M106.116 9.52481C106.116 12.47 104.633 14.1619 102.043 14.1619C99.7713 14.1619 98.4658 12.8094 98.4658 10.4543V0.496094H94.6016V10.8199C94.6016 15.0548 97.1551 17.7911 101.108 17.7911C103.286 17.7911 105.004 17.0183 106.111 15.5457V17.3629H109.975V0.496094H106.111V9.52481H106.116Z" fill="#0050FF"/>
<path d="M134.068 12.8355L129.52 0.496094H125.301L131.88 17.3629H136.22L142.794 0.496094H138.58L134.068 12.8355Z" fill="#0050FF"/>
<path d="M53.3692 12.0523C52.6329 13.1385 51.4266 13.9061 49.9175 14.1463C47.2961 14.5641 45.2021 13.5197 44.2778 11.3578L57.2804 9.30037C57.2804 9.30037 57.2386 8.16199 57.1551 7.66591C56.7791 5.30037 55.6094 3.23249 53.8548 1.84345C52.048 0.412642 49.7556 -0.172215 47.4005 0.198542C42.3091 1.00794 39.1968 5.27426 40.001 10.3448C40.3874 12.7938 41.5989 14.8983 43.4632 16.2038C45.5833 17.6868 47.8809 18.0001 50.4397 17.6659C53.7347 17.2377 55.5833 15.2429 56.3509 14.2142L53.3692 12.0523ZM47.9227 3.69724C49.7556 3.40481 52.0428 4.05755 53.035 6.7364L43.7399 8.20899C43.907 5.76512 45.4579 4.08366 47.9227 3.69724Z" fill="#0050FF"/>
<path d="M156.287 12.0523C155.551 13.1385 154.345 13.9061 152.835 14.1463C150.214 14.5641 148.12 13.5197 147.196 11.3578L160.198 9.30037C160.198 9.30037 160.157 8.16199 160.073 7.66591C159.697 5.30037 158.527 3.23249 156.773 1.84345C154.966 0.412642 152.674 -0.172215 150.318 0.198542C145.227 1.00794 142.115 5.27426 142.919 10.3448C143.305 12.7938 144.517 14.8983 146.381 16.2038C148.501 17.6868 150.799 18.0001 153.358 17.6659C156.653 17.2377 158.501 15.2429 159.269 14.2142L156.287 12.0523ZM150.841 3.69724C152.674 3.40481 154.961 4.05755 155.953 6.7364L146.658 8.20899C146.825 5.76512 148.376 4.08366 150.841 3.69724Z" fill="#0050FF"/>
<path d="M163.43 23.9791H167.634L177.806 0.496094H173.665L169.017 11.7546L164.459 0.496094H160.312L166.61 16.6371L163.43 23.9791Z" fill="#0050FF"/>
</svg>
